<svg width="23" height="23" viewBox="0 0 23 23" fill="none" xmlns="http://www.w3.org/2000/svg">
<circle cx="11.5" cy="11.5" r="10.5" fill="white" stroke="#030022"/>
<path d="M4 5.5C4 5.36739 4.04917 5.24021 4.13669 5.14645C4.22421 5.05268 4.34291 5 4.46668 5H5.86672C5.97082 5.00003 6.07192 5.03735 6.15395 5.10602C6.23597 5.1747 6.29421 5.27078 6.3194 5.379L6.69742 7H17.5338C17.6023 7.00007 17.6699 7.0163 17.732 7.04755C17.794 7.0788 17.8488 7.12429 17.8925 7.1808C17.9363 7.23731 17.9679 7.30345 17.9851 7.37452C18.0023 7.44558 18.0046 7.51984 17.992 7.592L16.592 15.592C16.572 15.7066 16.5152 15.8101 16.4315 15.8846C16.3479 15.9591 16.2425 15.9999 16.1337 16H7.73345C7.62465 15.9999 7.5193 15.9591 7.43562 15.8846C7.35194 15.8101 7.29519 15.7066 7.27517 15.592L5.87606 7.607L5.50271 6H4.46668C4.34291 6 4.22421 5.94732 4.13669 5.85355C4.04917 5.75979 4 5.63261 4 5.5ZM6.89529 8L8.12079 15H15.7464L16.9719 8H6.89529ZM8.66681 16C8.17172 16 7.69692 16.2107 7.34684 16.5858C6.99676 16.9609 6.80009 17.4696 6.80009 18C6.80009 18.5304 6.99676 19.0391 7.34684 19.4142C7.69692 19.7893 8.17172 20 8.66681 20C9.1619 20 9.63671 19.7893 9.98678 19.4142C10.3369 19.0391 10.5335 18.5304 10.5335 18C10.5335 17.4696 10.3369 16.9609 9.98678 16.5858C9.63671 16.2107 9.1619 16 8.66681 16ZM15.2003 16C14.7053 16 14.2305 16.2107 13.8804 16.5858C13.5303 16.9609 13.3336 17.4696 13.3336 18C13.3336 18.5304 13.5303 19.0391 13.8804 19.4142C14.2305 19.7893 14.7053 20 15.2003 20C15.6954 20 16.1702 19.7893 16.5203 19.4142C16.8704 19.0391 17.0671 18.5304 17.0671 18C17.0671 17.4696 16.8704 16.9609 16.5203 16.5858C16.1702 16.2107 15.6954 16 15.2003 16ZM8.66681 17C8.91435 17 9.15176 17.1054 9.3268 17.2929C9.50184 17.4804 9.60017 17.7348 9.60017 18C9.60017 18.2652 9.50184 18.5196 9.3268 18.7071C9.15176 18.8946 8.91435 19 8.66681 19C8.41927 19 8.18186 18.8946 8.00682 18.7071C7.83179 18.5196 7.73345 18.2652 7.73345 18C7.73345 17.7348 7.83179 17.4804 8.00682 17.2929C8.18186 17.1054 8.41927 17 8.66681 17ZM15.2003 17C15.4479 17 15.6853 17.1054 15.8603 17.2929C16.0354 17.4804 16.1337 17.7348 16.1337 18C16.1337 18.2652 16.0354 18.5196 15.8603 18.7071C15.6853 18.8946 15.4479 19 15.2003 19C14.9528 19 14.7154 18.8946 14.5404 18.7071C14.3653 18.5196 14.267 18.2652 14.267 18C14.267 17.7348 14.3653 17.4804 14.5404 17.2929C14.7154 17.1054 14.9528 17 15.2003 17V17Z" fill="#030022"/>
</svg>
