<svg width="147" height="147" viewBox="0 0 147 147" fill="none" xmlns="http://www.w3.org/2000/svg">
<g filter="url(#filter0_i_1_6)">
<circle cx="73.5" cy="73.5" r="71.5" fill="#030022"/>
</g>
<circle cx="73.5" cy="73.5" r="71.5" stroke="#030022" stroke-width="4"/>
<path d="M22.4286 32.6429C22.4286 31.7399 22.7634 30.8738 23.3594 30.2353C23.9553 29.5968 24.7636 29.2381 25.6064 29.2381H35.1401C35.8489 29.2383 36.5374 29.4924 37.0959 29.9601C37.6545 30.4277 38.0511 31.082 38.2226 31.8189L40.7967 42.8571H114.587C115.054 42.8576 115.514 42.9682 115.937 43.1809C116.359 43.3937 116.732 43.7035 117.03 44.0883C117.328 44.4731 117.543 44.9235 117.66 45.4074C117.777 45.8914 117.794 46.397 117.708 46.8884L108.174 101.365C108.038 102.145 107.651 102.849 107.081 103.357C106.512 103.864 105.794 104.142 105.053 104.143H47.8516C47.1107 104.142 46.3934 103.864 45.8235 103.357C45.2537 102.849 44.8672 102.145 44.7309 101.365L35.2036 46.9905L32.6613 36.0476H25.6064C24.7636 36.0476 23.9553 35.6889 23.3594 35.0504C22.7634 34.4119 22.4286 33.5459 22.4286 32.6429ZM42.1441 49.6667L50.4892 97.3333H102.416L110.761 49.6667H42.1441ZM54.2073 104.143C50.836 104.143 47.6028 105.578 45.2189 108.132C42.8351 110.686 41.4958 114.15 41.4958 117.762C41.4958 121.374 42.8351 124.838 45.2189 127.392C47.6028 129.946 50.836 131.381 54.2073 131.381C57.5786 131.381 60.8119 129.946 63.1957 127.392C65.5796 124.838 66.9188 121.374 66.9188 117.762C66.9188 114.15 65.5796 110.686 63.1957 108.132C60.8119 105.578 57.5786 104.143 54.2073 104.143ZM98.6976 104.143C95.3263 104.143 92.0931 105.578 89.7092 108.132C87.3253 110.686 85.9861 114.15 85.9861 117.762C85.9861 121.374 87.3253 124.838 89.7092 127.392C92.0931 129.946 95.3263 131.381 98.6976 131.381C102.069 131.381 105.302 129.946 107.686 127.392C110.07 124.838 111.409 121.374 111.409 117.762C111.409 114.15 110.07 110.686 107.686 108.132C105.302 105.578 102.069 104.143 98.6976 104.143ZM54.2073 110.952C55.893 110.952 57.5096 111.67 58.7015 112.947C59.8935 114.224 60.5631 115.956 60.5631 117.762C60.5631 119.568 59.8935 121.3 58.7015 122.577C57.5096 123.854 55.893 124.571 54.2073 124.571C52.5217 124.571 50.9051 123.854 49.7131 122.577C48.5212 121.3 47.8516 119.568 47.8516 117.762C47.8516 115.956 48.5212 114.224 49.7131 112.947C50.9051 111.67 52.5217 110.952 54.2073 110.952ZM98.6976 110.952C100.383 110.952 102 111.67 103.192 112.947C104.384 114.224 105.053 115.956 105.053 117.762C105.053 119.568 104.384 121.3 103.192 122.577C102 123.854 100.383 124.571 98.6976 124.571C97.0119 124.571 95.3953 123.854 94.2034 122.577C93.0115 121.3 92.3418 119.568 92.3418 117.762C92.3418 115.956 93.0115 114.224 94.2034 112.947C95.3953 111.67 97.0119 110.952 98.6976 110.952Z" fill="white"/>
<defs>
<filter id="filter0_i_1_6" x="0" y="0" width="147" height="151" filterUnits="userSpaceOnUse" color-interpolation-filters="sRGB">
<feFlood flood-opacity="0" result="BackgroundImageFix"/>
<feBlend mode="normal" in="SourceGraphic" in2="BackgroundImageFix" result="shape"/>
<feColorMatrix in="SourceAlpha" type="matrix" values="0 0 0 0 0 0 0 0 0 0 0 0 0 0 0 0 0 0 127 0" result="hardAlpha"/>
<feOffset dy="4"/>
<feGaussianBlur stdDeviation="2"/>
<feComposite in2="hardAlpha" operator="arithmetic" k2="-1" k3="1"/>
<feColorMatrix type="matrix" values="0 0 0 0 0 0 0 0 0 0 0 0 0 0 0 0 0 0 0.25 0"/>
<feBlend mode="normal" in2="shape" result="effect1_innerShadow_1_6"/>
</filter>
</defs>
</svg>
