<svg width="99" height="16" viewBox="0 0 99 16" fill="none" xmlns="http://www.w3.org/2000/svg">
<path d="M13.601 2.32599C12.8675 1.58566 11.9939 0.998732 11.0313 0.599393C10.0687 0.200054 9.03617 -0.00370531 7.994 -1.17046e-05C3.627 -1.17046e-05 0.068 3.55799 0.064 7.92599C0.064 9.32499 0.43 10.686 1.121 11.891L0 16L4.204 14.898C5.367 15.5309 6.66993 15.8626 7.994 15.863H7.998C12.366 15.863 15.924 12.305 15.928 7.93299C15.929 6.89103 15.7238 5.85918 15.3243 4.89687C14.9247 3.93456 14.3387 3.06082 13.6 2.32599H13.601ZM7.994 14.521C6.813 14.5214 5.6537 14.2036 4.638 13.601L4.398 13.457L1.904 14.111L2.57 11.678L2.414 11.427C1.75381 10.3773 1.40465 9.16201 1.407 7.92199C1.407 4.29599 4.364 1.33799 7.998 1.33799C8.86374 1.33644 9.72123 1.50626 10.521 1.83768C11.3208 2.1691 12.0471 2.65555 12.658 3.26899C13.271 3.88004 13.757 4.60641 14.0879 5.40622C14.4188 6.20603 14.5881 7.06343 14.586 7.92899C14.582 11.568 11.625 14.521 7.994 14.521ZM11.609 9.58699C11.412 9.48799 10.439 9.00899 10.256 8.94099C10.074 8.87599 9.941 8.84199 9.811 9.03999C9.678 9.23699 9.298 9.68599 9.184 9.81499C9.07 9.94799 8.952 9.96299 8.754 9.86499C8.557 9.76499 7.918 9.55699 7.162 8.87999C6.572 8.35499 6.177 7.70499 6.059 7.50799C5.945 7.30999 6.048 7.20399 6.147 7.10499C6.234 7.01699 6.344 6.87299 6.443 6.75899C6.543 6.64499 6.576 6.56099 6.641 6.42899C6.706 6.29499 6.675 6.18099 6.626 6.08199C6.576 5.98299 6.181 5.00599 6.014 4.61199C5.854 4.22299 5.691 4.27699 5.569 4.27199C5.455 4.26499 5.322 4.26499 5.189 4.26499C5.08856 4.26748 4.98973 4.29071 4.89869 4.33322C4.80766 4.37572 4.7264 4.43659 4.66 4.51199C4.478 4.70999 3.969 5.18899 3.969 6.16599C3.969 7.14299 4.679 8.08199 4.779 8.21499C4.877 8.34799 6.173 10.347 8.162 11.207C8.632 11.412 9.002 11.533 9.291 11.625C9.766 11.777 10.195 11.754 10.537 11.705C10.917 11.647 11.708 11.225 11.875 10.762C12.039 10.298 12.039 9.90199 11.989 9.81899C11.94 9.73499 11.807 9.68599 11.609 9.58699Z" fill="white"/>
<path d="M25.1409 14.5H24.1917V8.42965C24.1917 8.19918 24.1917 8.00191 24.1917 7.83785C24.1956 7.66988 24.1995 7.51754 24.2034 7.38082C24.2112 7.2402 24.221 7.09762 24.2327 6.95309C24.1116 7.07809 23.9983 7.18551 23.8929 7.27535C23.7874 7.36129 23.6565 7.46871 23.5003 7.59762L22.5218 8.38277L22.012 7.72066L24.3323 5.93356H25.1409V14.5ZM31.094 9.26168C31.6761 9.26168 32.1819 9.36129 32.6116 9.56051C33.0413 9.75582 33.3733 10.041 33.6077 10.416C33.846 10.791 33.9651 11.2461 33.9651 11.7812C33.9651 12.3671 33.8382 12.873 33.5843 13.2988C33.3304 13.7207 32.9651 14.0468 32.4886 14.2773C32.012 14.5039 31.4417 14.6171 30.7776 14.6171C30.3323 14.6171 29.9182 14.5781 29.5354 14.5C29.1526 14.4218 28.8304 14.3046 28.5686 14.1484V13.2226C28.8538 13.3945 29.1995 13.5312 29.6057 13.6328C30.012 13.7343 30.4065 13.7851 30.7893 13.7851C31.2229 13.7851 31.6018 13.7168 31.9261 13.58C32.2542 13.4394 32.5081 13.2285 32.6878 12.9472C32.8714 12.6621 32.9632 12.3046 32.9632 11.875C32.9632 11.3046 32.7874 10.8652 32.4358 10.5566C32.0882 10.2441 31.5374 10.0879 30.7835 10.0879C30.5413 10.0879 30.2757 10.1074 29.9866 10.1464C29.6975 10.1855 29.4593 10.2285 29.2718 10.2754L28.7796 9.95309L29.1077 5.93356H33.3675V6.82418H29.9397L29.7229 9.40816C29.8714 9.37691 30.0628 9.34566 30.2971 9.31441C30.5315 9.27926 30.7971 9.26168 31.094 9.26168ZM35.1429 11.7109V10.8437H38.0491V11.7109H35.1429ZM45.1624 12.5136H43.8792V14.5H42.93V12.5136H38.7874V11.6933L42.8655 5.88668H43.8792V11.6347H45.1624V12.5136ZM42.93 11.6347V8.83395C42.93 8.6191 42.9319 8.42574 42.9358 8.25387C42.9397 8.07809 42.9456 7.91598 42.9534 7.76754C42.9612 7.6152 42.9671 7.47066 42.971 7.33395C42.9788 7.19723 42.9846 7.06246 42.9886 6.92965H42.9417C42.8675 7.0859 42.7815 7.25191 42.6839 7.4277C42.5901 7.59957 42.4944 7.75387 42.3968 7.89059L39.7542 11.6347H42.93ZM46.0764 10.8379C46.0764 10.3222 46.1116 9.81832 46.1819 9.32613C46.2561 8.83395 46.3792 8.37691 46.5511 7.95504C46.7229 7.52926 46.9573 7.15621 47.2542 6.8359C47.5511 6.51559 47.9202 6.26559 48.3616 6.0859C48.8069 5.90231 49.3401 5.81051 49.9612 5.81051C50.137 5.81051 50.3264 5.82027 50.5296 5.83981C50.7327 5.85543 50.9007 5.88277 51.0335 5.92184V6.75973C50.8889 6.70895 50.7229 6.67184 50.5354 6.6484C50.3518 6.62496 50.1663 6.61324 49.9788 6.61324C49.2522 6.61324 48.68 6.77145 48.262 7.08785C47.8479 7.40426 47.5491 7.83395 47.3655 8.37691C47.1819 8.91598 47.0764 9.5234 47.0491 10.1992H47.1136C47.2346 10.0039 47.3889 9.82809 47.5764 9.67184C47.7639 9.51168 47.9905 9.38473 48.2561 9.29098C48.5257 9.19723 48.8382 9.15035 49.1936 9.15035C49.6936 9.15035 50.1292 9.25191 50.5003 9.45504C50.8753 9.65816 51.1643 9.95309 51.3675 10.3398C51.5745 10.7265 51.678 11.1953 51.678 11.7461C51.678 12.3359 51.5686 12.8457 51.3499 13.2754C51.1311 13.705 50.8186 14.0371 50.4124 14.2714C50.01 14.5019 49.5296 14.6171 48.971 14.6171C48.553 14.6171 48.1682 14.5371 47.8167 14.3769C47.4651 14.2168 47.1585 13.9785 46.8968 13.6621C46.6389 13.3457 46.4378 12.9531 46.2932 12.4843C46.1487 12.0117 46.0764 11.4629 46.0764 10.8379ZM48.9593 13.7968C49.4905 13.7968 49.9163 13.6269 50.2366 13.2871C50.5569 12.9472 50.7171 12.4336 50.7171 11.7461C50.7171 11.1836 50.5745 10.7382 50.2893 10.4101C50.0042 10.082 49.5745 9.91793 49.0003 9.91793C48.6096 9.91793 48.2698 9.99996 47.9807 10.164C47.6917 10.3242 47.4671 10.5273 47.3069 10.7734C47.1468 11.0195 47.0667 11.2695 47.0667 11.5234C47.0667 11.7812 47.1038 12.0429 47.178 12.3086C47.2561 12.5742 47.3733 12.8203 47.5296 13.0468C47.6858 13.2734 47.8831 13.455 48.1214 13.5918C48.3596 13.7285 48.6389 13.7968 48.9593 13.7968ZM55.5628 9.26168C56.1448 9.26168 56.6507 9.36129 57.0804 9.56051C57.51 9.75582 57.8421 10.041 58.0764 10.416C58.3147 10.791 58.4339 11.2461 58.4339 11.7812C58.4339 12.3671 58.3069 12.873 58.053 13.2988C57.7991 13.7207 57.4339 14.0468 56.9573 14.2773C56.4807 14.5039 55.9104 14.6171 55.2464 14.6171C54.8011 14.6171 54.387 14.5781 54.0042 14.5C53.6214 14.4218 53.2991 14.3046 53.0374 14.1484V13.2226C53.3225 13.3945 53.6682 13.5312 54.0745 13.6328C54.4807 13.7343 54.8753 13.7851 55.2581 13.7851C55.6917 13.7851 56.0706 13.7168 56.3948 13.58C56.7229 13.4394 56.9768 13.2285 57.1565 12.9472C57.3401 12.6621 57.4319 12.3046 57.4319 11.875C57.4319 11.3046 57.2561 10.8652 56.9046 10.5566C56.5569 10.2441 56.0061 10.0879 55.2522 10.0879C55.01 10.0879 54.7444 10.1074 54.4554 10.1464C54.1663 10.1855 53.928 10.2285 53.7405 10.2754L53.2483 9.95309L53.5764 5.93356H57.8362V6.82418H54.4085L54.1917 9.40816C54.3401 9.37691 54.5315 9.34566 54.7659 9.31441C55.0003 9.27926 55.2659 9.26168 55.5628 9.26168ZM65.7639 12.5136H64.4807V14.5H63.5315V12.5136H59.3889V11.6933L63.4671 5.88668H64.4807V11.6347H65.7639V12.5136ZM63.5315 11.6347V8.83395C63.5315 8.6191 63.5335 8.42574 63.5374 8.25387C63.5413 8.07809 63.5471 7.91598 63.555 7.76754C63.5628 7.6152 63.5686 7.47066 63.5725 7.33395C63.5804 7.19723 63.5862 7.06246 63.5901 6.92965H63.5432C63.469 7.0859 63.3831 7.25191 63.2854 7.4277C63.1917 7.59957 63.096 7.75387 62.9983 7.89059L60.3557 11.6347H63.5315ZM66.4788 11.7109V10.8437H69.385V11.7109H66.4788ZM76.4983 12.5136H75.2151V14.5H74.2659V12.5136H70.1233V11.6933L74.2014 5.88668H75.2151V11.6347H76.4983V12.5136ZM74.2659 11.6347V8.83395C74.2659 8.6191 74.2679 8.42574 74.2718 8.25387C74.2757 8.07809 74.2815 7.91598 74.2893 7.76754C74.2971 7.6152 74.303 7.47066 74.3069 7.33395C74.3147 7.19723 74.3206 7.06246 74.3245 6.92965H74.2776C74.2034 7.0859 74.1175 7.25191 74.0198 7.4277C73.9261 7.59957 73.8304 7.75387 73.7327 7.89059L71.0901 11.6347H74.2659ZM80.0315 9.26168C80.6136 9.26168 81.1194 9.36129 81.5491 9.56051C81.9788 9.75582 82.3108 10.041 82.5452 10.416C82.7835 10.791 82.9026 11.2461 82.9026 11.7812C82.9026 12.3671 82.7757 12.873 82.5218 13.2988C82.2679 13.7207 81.9026 14.0468 81.4261 14.2773C80.9495 14.5039 80.3792 14.6171 79.7151 14.6171C79.2698 14.6171 78.8557 14.5781 78.4729 14.5C78.0901 14.4218 77.7679 14.3046 77.5061 14.1484V13.2226C77.7913 13.3945 78.137 13.5312 78.5432 13.6328C78.9495 13.7343 79.344 13.7851 79.7268 13.7851C80.1604 13.7851 80.5393 13.7168 80.8636 13.58C81.1917 13.4394 81.4456 13.2285 81.6253 12.9472C81.8089 12.6621 81.9007 12.3046 81.9007 11.875C81.9007 11.3046 81.7249 10.8652 81.3733 10.5566C81.0257 10.2441 80.4749 10.0879 79.721 10.0879C79.4788 10.0879 79.2132 10.1074 78.9241 10.1464C78.635 10.1855 78.3968 10.2285 78.2093 10.2754L77.7171 9.95309L78.0452 5.93356H82.305V6.82418H78.8772L78.6604 9.40816C78.8089 9.37691 79.0003 9.34566 79.2346 9.31441C79.469 9.27926 79.7346 9.26168 80.0315 9.26168ZM90.2327 12.5136H88.9495V14.5H88.0003V12.5136H83.8577V11.6933L87.9358 5.88668H88.9495V11.6347H90.2327V12.5136ZM88.0003 11.6347V8.83395C88.0003 8.6191 88.0022 8.42574 88.0061 8.25387C88.01 8.07809 88.0159 7.91598 88.0237 7.76754C88.0315 7.6152 88.0374 7.47066 88.0413 7.33395C88.0491 7.19723 88.055 7.06246 88.0589 6.92965H88.012C87.9378 7.0859 87.8518 7.25191 87.7542 7.4277C87.6604 7.59957 87.5647 7.75387 87.4671 7.89059L84.8245 11.6347H88.0003ZM91.1468 10.8379C91.1468 10.3222 91.1819 9.81832 91.2522 9.32613C91.3264 8.83395 91.4495 8.37691 91.6214 7.95504C91.7932 7.52926 92.0276 7.15621 92.3245 6.8359C92.6214 6.51559 92.9905 6.26559 93.4319 6.0859C93.8772 5.90231 94.4104 5.81051 95.0315 5.81051C95.2073 5.81051 95.3968 5.82027 95.5999 5.83981C95.803 5.85543 95.971 5.88277 96.1038 5.92184V6.75973C95.9593 6.70895 95.7932 6.67184 95.6057 6.6484C95.4221 6.62496 95.2366 6.61324 95.0491 6.61324C94.3225 6.61324 93.7503 6.77145 93.3323 7.08785C92.9182 7.40426 92.6194 7.83395 92.4358 8.37691C92.2522 8.91598 92.1468 9.5234 92.1194 10.1992H92.1839C92.305 10.0039 92.4593 9.82809 92.6468 9.67184C92.8343 9.51168 93.0608 9.38473 93.3264 9.29098C93.596 9.19723 93.9085 9.15035 94.2639 9.15035C94.7639 9.15035 95.1995 9.25191 95.5706 9.45504C95.9456 9.65816 96.2346 9.95309 96.4378 10.3398C96.6448 10.7265 96.7483 11.1953 96.7483 11.7461C96.7483 12.3359 96.6389 12.8457 96.4202 13.2754C96.2014 13.705 95.8889 14.0371 95.4827 14.2714C95.0804 14.5019 94.5999 14.6171 94.0413 14.6171C93.6233 14.6171 93.2386 14.5371 92.887 14.3769C92.5354 14.2168 92.2288 13.9785 91.9671 13.6621C91.7093 13.3457 91.5081 12.9531 91.3636 12.4843C91.219 12.0117 91.1468 11.4629 91.1468 10.8379ZM94.0296 13.7968C94.5608 13.7968 94.9866 13.6269 95.3069 13.2871C95.6272 12.9472 95.7874 12.4336 95.7874 11.7461C95.7874 11.1836 95.6448 10.7382 95.3596 10.4101C95.0745 10.082 94.6448 9.91793 94.0706 9.91793C93.68 9.91793 93.3401 9.99996 93.0511 10.164C92.762 10.3242 92.5374 10.5273 92.3772 10.7734C92.2171 11.0195 92.137 11.2695 92.137 11.5234C92.137 11.7812 92.1741 12.0429 92.2483 12.3086C92.3264 12.5742 92.4436 12.8203 92.5999 13.0468C92.7561 13.2734 92.9534 13.455 93.1917 13.5918C93.43 13.7285 93.7093 13.7968 94.0296 13.7968Z" fill="white"/>
</svg>
